<svg xmlns="http://www.w3.org/2000/svg" viewBox="0 0 177.68 52.36"><defs><style>.cls-1{fill:#fff;}</style></defs><title>Asset 1</title><g id="Layer_2" data-name="Layer 2"><g id="Layer_1-2" data-name="Layer 1"><path class="cls-1" d="M177,23.6l-12.14-21a5.16,5.16,0,1,0-8.93,5.16l10.65,18.44L155.92,44.62a5.16,5.16,0,1,0,8.93,5.16l12.14-21A5.17,5.17,0,0,0,177,23.6Z"/><path class="cls-1" d="M142,2.62A5.14,5.14,0,0,0,137.49,0H113.22a5.16,5.16,0,1,0,0,10.32h21.3l6.17,10.7L126,21a5,5,0,0,0-1.16,0l-20.35,0L93.93,2.62A5.14,5.14,0,0,0,89.47,0H65.19a5.16,5.16,0,1,0,0,10.32h21.3l6.17,10.7L56.58,21,45.94,2.58A5.16,5.16,0,1,0,37,7.74L47.66,26.18,41.49,36.87,21.77,2.59A5.15,5.15,0,0,0,17.31,0h0a5.14,5.14,0,0,0-4.46,2.58L.69,23.6a5.17,5.17,0,0,0,0,5.16l12.15,21a5.16,5.16,0,0,0,8.93-5.16L11.11,26.18l6.18-10.69L37,49.77a5.19,5.19,0,0,0,4.47,2.59h0a5.17,5.17,0,0,0,4.47-2.58l7.43-12.86,7.4,12.82a5.14,5.14,0,0,0,4.47,2.58H89.51a5.16,5.16,0,1,0,0-10.31H68.21L62,31.31l36.16.06,10.6,18.37a5.15,5.15,0,0,0,8.93-5.15l-7.66-13.28,12.44,0,10.64,18.41a5.16,5.16,0,1,0,8.93-5.16l-7.64-13.23,15.18,0h0a5.16,5.16,0,0,0,4.47-7.74Z"/></g></g></svg>